<mxfile host="app.diagrams.net" agent="Mozilla/5.0 (Windows NT 10.0; Win64; x64) AppleWebKit/537.36 (KHTML, like Gecko) Chrome/128.0.0.0 Safari/537.36" version="24.7.13">
  <diagram name="Page-1" id="Pso-l4eipHV7fYDRS40x">
    <mxGraphModel dx="2072" dy="1097" grid="1" gridSize="10" guides="1" tooltips="1" connect="1" arrows="1" fold="1" page="1" pageScale="1" pageWidth="850" pageHeight="1100" math="0" shadow="0">
      <root>
        <mxCell id="0" />
        <mxCell id="1" parent="0" />
        <mxCell id="n5Uz14gswoLrWk821ix5-1" value="Wraith Lord&lt;div&gt;D3&lt;/div&gt;&lt;div&gt;Conjuration 8&lt;/div&gt;&lt;div&gt;Call Wraith Lord D5&lt;/div&gt;" style="rounded=1;whiteSpace=wrap;html=1;fillColor=#e1d5e7;strokeColor=#9673a6;" vertex="1" parent="1">
          <mxGeometry x="550" y="340" width="120" height="60" as="geometry" />
        </mxCell>
        <mxCell id="n5Uz14gswoLrWk821ix5-2" value="&lt;div&gt;Arch Devil&lt;/div&gt;&lt;div&gt;F4 [F3S3]&lt;/div&gt;&lt;div&gt;Blood 7&lt;/div&gt;&lt;div&gt;Bind Arch Devil B4F2&lt;/div&gt;" style="rounded=1;whiteSpace=wrap;html=1;fillColor=#f8cecc;strokeColor=#b85450;" vertex="1" parent="1">
          <mxGeometry x="270" y="370" width="120" height="60" as="geometry" />
        </mxCell>
      </root>
    </mxGraphModel>
  </diagram>
</mxfile>
